G04 EAGLE Gerber RS-274X export*
G75*
%MOMM*%
%FSLAX34Y34*%
%LPD*%
%INTop Copper*%
%IPPOS*%
%AMOC8*
5,1,8,0,0,1.08239X$1,22.5*%
G01*
%ADD10C,1.422400*%
%ADD11P,1.429621X8X292.500000*%
%ADD12P,1.429621X8X202.500000*%
%ADD13C,1.676400*%
%ADD14C,1.524000*%
%ADD15C,0.254000*%

G36*
X398638Y12469D02*
X398638Y12469D01*
X398684Y12475D01*
X398730Y12473D01*
X398841Y12496D01*
X398953Y12511D01*
X398996Y12528D01*
X399041Y12537D01*
X399143Y12587D01*
X399248Y12630D01*
X399285Y12657D01*
X399327Y12677D01*
X399413Y12751D01*
X399504Y12818D01*
X399534Y12854D01*
X399569Y12883D01*
X399634Y12976D01*
X399706Y13064D01*
X399725Y13106D01*
X399752Y13143D01*
X399792Y13249D01*
X399840Y13352D01*
X399848Y13398D01*
X399864Y13441D01*
X399877Y13554D01*
X399898Y13665D01*
X399895Y13711D01*
X399900Y13757D01*
X399884Y13869D01*
X399876Y13982D01*
X399862Y14026D01*
X399855Y14072D01*
X399803Y14224D01*
X398939Y16310D01*
X398939Y24330D01*
X402009Y31740D01*
X407680Y37411D01*
X415090Y40481D01*
X423110Y40481D01*
X426744Y38975D01*
X426792Y38962D01*
X426837Y38941D01*
X426945Y38921D01*
X427051Y38891D01*
X427101Y38891D01*
X427150Y38881D01*
X427259Y38888D01*
X427369Y38886D01*
X427417Y38898D01*
X427467Y38901D01*
X427571Y38935D01*
X427678Y38961D01*
X427722Y38984D01*
X427769Y38999D01*
X427862Y39058D01*
X427959Y39109D01*
X427996Y39143D01*
X428038Y39169D01*
X428113Y39249D01*
X428195Y39323D01*
X428222Y39365D01*
X428256Y39401D01*
X428309Y39497D01*
X428369Y39589D01*
X428386Y39636D01*
X428410Y39679D01*
X428437Y39786D01*
X428473Y39890D01*
X428477Y39939D01*
X428489Y39987D01*
X428499Y40148D01*
X428499Y257032D01*
X428493Y257081D01*
X428495Y257131D01*
X428473Y257238D01*
X428459Y257347D01*
X428441Y257394D01*
X428431Y257442D01*
X428383Y257541D01*
X428342Y257643D01*
X428313Y257683D01*
X428291Y257728D01*
X428220Y257811D01*
X428156Y257901D01*
X428117Y257932D01*
X428085Y257970D01*
X427995Y258033D01*
X427911Y258103D01*
X427866Y258125D01*
X427825Y258153D01*
X427722Y258192D01*
X427623Y258239D01*
X427574Y258248D01*
X427528Y258266D01*
X427418Y258278D01*
X427311Y258299D01*
X427261Y258296D01*
X427212Y258301D01*
X427103Y258286D01*
X426993Y258279D01*
X426946Y258264D01*
X426897Y258257D01*
X426744Y258205D01*
X423110Y256699D01*
X415090Y256699D01*
X407680Y259769D01*
X402009Y265440D01*
X398939Y272850D01*
X398939Y280870D01*
X400718Y285164D01*
X400731Y285212D01*
X400752Y285257D01*
X400773Y285365D01*
X400802Y285471D01*
X400803Y285521D01*
X400812Y285570D01*
X400805Y285679D01*
X400807Y285789D01*
X400795Y285837D01*
X400792Y285887D01*
X400758Y285991D01*
X400733Y286098D01*
X400710Y286142D01*
X400694Y286189D01*
X400635Y286282D01*
X400584Y286379D01*
X400551Y286416D01*
X400524Y286458D01*
X400444Y286533D01*
X400370Y286615D01*
X400329Y286642D01*
X400292Y286676D01*
X400196Y286729D01*
X400104Y286789D01*
X400057Y286806D01*
X400014Y286830D01*
X399908Y286857D01*
X399804Y286893D01*
X399754Y286897D01*
X399706Y286909D01*
X399545Y286919D01*
X37335Y286919D01*
X37285Y286913D01*
X37236Y286915D01*
X37128Y286893D01*
X37019Y286879D01*
X36973Y286861D01*
X36924Y286851D01*
X36826Y286803D01*
X36723Y286762D01*
X36683Y286733D01*
X36639Y286711D01*
X36555Y286640D01*
X36466Y286576D01*
X36434Y286537D01*
X36397Y286505D01*
X36333Y286415D01*
X36263Y286331D01*
X36242Y286286D01*
X36214Y286245D01*
X36175Y286142D01*
X36128Y286043D01*
X36118Y285994D01*
X36101Y285948D01*
X36089Y285838D01*
X36068Y285731D01*
X36071Y285681D01*
X36066Y285632D01*
X36081Y285523D01*
X36088Y285413D01*
X36103Y285366D01*
X36110Y285317D01*
X36162Y285164D01*
X37941Y280870D01*
X37941Y272850D01*
X34871Y265440D01*
X29200Y259769D01*
X21790Y256699D01*
X13770Y256699D01*
X11916Y257467D01*
X11868Y257480D01*
X11823Y257502D01*
X11715Y257522D01*
X11609Y257551D01*
X11559Y257552D01*
X11510Y257561D01*
X11401Y257555D01*
X11291Y257556D01*
X11243Y257545D01*
X11193Y257542D01*
X11089Y257508D01*
X10982Y257482D01*
X10938Y257459D01*
X10891Y257444D01*
X10798Y257385D01*
X10701Y257333D01*
X10664Y257300D01*
X10622Y257273D01*
X10547Y257193D01*
X10465Y257119D01*
X10438Y257078D01*
X10404Y257042D01*
X10351Y256946D01*
X10291Y256854D01*
X10274Y256807D01*
X10250Y256763D01*
X10223Y256657D01*
X10187Y256553D01*
X10183Y256503D01*
X10171Y256455D01*
X10161Y256295D01*
X10161Y229372D01*
X10169Y229302D01*
X10168Y229233D01*
X10189Y229145D01*
X10201Y229056D01*
X10226Y228991D01*
X10243Y228923D01*
X10285Y228844D01*
X10318Y228760D01*
X10359Y228704D01*
X10391Y228642D01*
X10452Y228576D01*
X10504Y228503D01*
X10558Y228458D01*
X10605Y228407D01*
X10680Y228358D01*
X10749Y228300D01*
X10813Y228270D01*
X10871Y228232D01*
X10956Y228203D01*
X11037Y228165D01*
X11106Y228152D01*
X11172Y228129D01*
X11261Y228122D01*
X11349Y228105D01*
X11419Y228109D01*
X11489Y228104D01*
X11577Y228119D01*
X11667Y228125D01*
X11733Y228146D01*
X11802Y228158D01*
X11884Y228195D01*
X11969Y228223D01*
X12028Y228260D01*
X12092Y228289D01*
X12162Y228345D01*
X12238Y228393D01*
X12286Y228444D01*
X12340Y228487D01*
X12394Y228559D01*
X12456Y228625D01*
X12490Y228686D01*
X12532Y228741D01*
X12603Y228886D01*
X12645Y228988D01*
X15360Y231703D01*
X18908Y233173D01*
X36972Y233173D01*
X40520Y231703D01*
X43235Y228988D01*
X44705Y225440D01*
X44705Y221600D01*
X43235Y218052D01*
X41914Y216731D01*
X41841Y216637D01*
X41762Y216547D01*
X41743Y216511D01*
X41719Y216479D01*
X41671Y216370D01*
X41617Y216264D01*
X41608Y216225D01*
X41592Y216187D01*
X41574Y216070D01*
X41548Y215954D01*
X41549Y215913D01*
X41542Y215873D01*
X41554Y215755D01*
X41557Y215636D01*
X41568Y215597D01*
X41572Y215557D01*
X41613Y215445D01*
X41646Y215330D01*
X41666Y215296D01*
X41680Y215257D01*
X41747Y215159D01*
X41807Y215056D01*
X41847Y215011D01*
X41858Y214994D01*
X41874Y214981D01*
X41914Y214936D01*
X54547Y202302D01*
X57151Y199698D01*
X57151Y181272D01*
X57154Y181243D01*
X57152Y181214D01*
X57174Y181085D01*
X57191Y180957D01*
X57201Y180929D01*
X57206Y180900D01*
X57260Y180782D01*
X57308Y180661D01*
X57325Y180637D01*
X57337Y180610D01*
X57418Y180509D01*
X57494Y180404D01*
X57517Y180385D01*
X57536Y180362D01*
X57639Y180284D01*
X57739Y180201D01*
X57766Y180188D01*
X57790Y180171D01*
X57934Y180100D01*
X59527Y179440D01*
X62600Y176367D01*
X64263Y172353D01*
X64263Y168007D01*
X62600Y163993D01*
X59527Y160920D01*
X55513Y159257D01*
X51167Y159257D01*
X49574Y159917D01*
X49546Y159925D01*
X49519Y159938D01*
X49393Y159967D01*
X49268Y160001D01*
X49238Y160002D01*
X49209Y160008D01*
X49080Y160004D01*
X48950Y160006D01*
X48921Y159999D01*
X48891Y159998D01*
X48767Y159962D01*
X48640Y159932D01*
X48614Y159918D01*
X48586Y159910D01*
X48474Y159844D01*
X48359Y159783D01*
X48337Y159763D01*
X48312Y159748D01*
X48191Y159642D01*
X48145Y159596D01*
X48126Y159571D01*
X48124Y159569D01*
X48121Y159564D01*
X48072Y159502D01*
X47994Y159413D01*
X47975Y159377D01*
X47950Y159345D01*
X47903Y159236D01*
X47849Y159130D01*
X47840Y159090D01*
X47824Y159053D01*
X47806Y158935D01*
X47780Y158820D01*
X47781Y158779D01*
X47774Y158739D01*
X47786Y158620D01*
X47789Y158502D01*
X47801Y158463D01*
X47804Y158422D01*
X47845Y158310D01*
X47878Y158196D01*
X47898Y158161D01*
X47912Y158123D01*
X47979Y158024D01*
X48039Y157922D01*
X48079Y157877D01*
X48091Y157860D01*
X48106Y157846D01*
X48146Y157801D01*
X49900Y156047D01*
X51563Y152033D01*
X51563Y147687D01*
X49900Y143673D01*
X46827Y140600D01*
X42813Y138937D01*
X38467Y138937D01*
X34453Y140600D01*
X33917Y141135D01*
X33808Y141220D01*
X33701Y141309D01*
X33682Y141318D01*
X33666Y141330D01*
X33538Y141386D01*
X33413Y141445D01*
X33393Y141449D01*
X33374Y141457D01*
X33236Y141479D01*
X33100Y141505D01*
X33080Y141503D01*
X33060Y141507D01*
X32921Y141494D01*
X32783Y141485D01*
X32764Y141479D01*
X32744Y141477D01*
X32613Y141430D01*
X32481Y141387D01*
X32463Y141376D01*
X32444Y141369D01*
X32330Y141291D01*
X32212Y141217D01*
X32198Y141202D01*
X32181Y141191D01*
X32089Y141087D01*
X31994Y140985D01*
X31984Y140967D01*
X31971Y140952D01*
X31908Y140828D01*
X31840Y140707D01*
X31835Y140687D01*
X31826Y140669D01*
X31796Y140533D01*
X31761Y140399D01*
X31759Y140371D01*
X31756Y140359D01*
X31757Y140338D01*
X31751Y140238D01*
X31751Y63064D01*
X31763Y62966D01*
X31766Y62867D01*
X31783Y62809D01*
X31791Y62749D01*
X31827Y62657D01*
X31855Y62561D01*
X31885Y62509D01*
X31908Y62453D01*
X31966Y62373D01*
X32016Y62288D01*
X32082Y62212D01*
X32094Y62196D01*
X32104Y62188D01*
X32122Y62167D01*
X35491Y58798D01*
X35515Y58780D01*
X35534Y58757D01*
X35640Y58683D01*
X35742Y58603D01*
X35770Y58591D01*
X35794Y58574D01*
X35915Y58528D01*
X36034Y58477D01*
X36063Y58472D01*
X36091Y58462D01*
X36220Y58447D01*
X36348Y58427D01*
X36378Y58430D01*
X36407Y58426D01*
X36536Y58445D01*
X36665Y58457D01*
X36693Y58467D01*
X36722Y58471D01*
X36874Y58523D01*
X38467Y59183D01*
X42813Y59183D01*
X46827Y57520D01*
X49900Y54447D01*
X51563Y50433D01*
X51563Y46087D01*
X50159Y42698D01*
X50151Y42670D01*
X50138Y42644D01*
X50109Y42516D01*
X50075Y42392D01*
X50075Y42362D01*
X50068Y42333D01*
X50072Y42204D01*
X50070Y42074D01*
X50077Y42045D01*
X50078Y42015D01*
X50114Y41891D01*
X50144Y41764D01*
X50158Y41738D01*
X50166Y41710D01*
X50232Y41598D01*
X50293Y41483D01*
X50313Y41461D01*
X50328Y41436D01*
X50434Y41315D01*
X50731Y41018D01*
X50754Y41000D01*
X50774Y40977D01*
X50880Y40903D01*
X50982Y40823D01*
X51010Y40811D01*
X51034Y40794D01*
X51155Y40748D01*
X51274Y40697D01*
X51303Y40692D01*
X51331Y40682D01*
X51460Y40667D01*
X51588Y40647D01*
X51618Y40650D01*
X51647Y40646D01*
X51776Y40665D01*
X51905Y40677D01*
X51933Y40687D01*
X51962Y40691D01*
X52114Y40743D01*
X53707Y41403D01*
X58053Y41403D01*
X62067Y39740D01*
X65140Y36667D01*
X66803Y32653D01*
X66803Y28307D01*
X65140Y24293D01*
X62067Y21220D01*
X58053Y19557D01*
X53707Y19557D01*
X49693Y21220D01*
X46620Y24293D01*
X44957Y28307D01*
X44957Y32653D01*
X45617Y34246D01*
X45625Y34274D01*
X45638Y34300D01*
X45667Y34427D01*
X45701Y34552D01*
X45702Y34582D01*
X45708Y34611D01*
X45704Y34741D01*
X45706Y34870D01*
X45699Y34899D01*
X45698Y34929D01*
X45662Y35053D01*
X45632Y35180D01*
X45618Y35206D01*
X45610Y35234D01*
X45544Y35346D01*
X45483Y35461D01*
X45463Y35483D01*
X45448Y35508D01*
X45342Y35629D01*
X43993Y36978D01*
X43969Y36996D01*
X43950Y37019D01*
X43844Y37094D01*
X43742Y37173D01*
X43714Y37185D01*
X43690Y37202D01*
X43569Y37248D01*
X43450Y37299D01*
X43420Y37304D01*
X43393Y37314D01*
X43264Y37329D01*
X43136Y37349D01*
X43106Y37346D01*
X43077Y37350D01*
X42989Y37337D01*
X38467Y37337D01*
X34453Y39000D01*
X31380Y42073D01*
X29717Y46087D01*
X29717Y50433D01*
X30377Y52026D01*
X30385Y52054D01*
X30398Y52080D01*
X30427Y52207D01*
X30461Y52332D01*
X30462Y52362D01*
X30468Y52391D01*
X30464Y52520D01*
X30466Y52650D01*
X30459Y52679D01*
X30458Y52709D01*
X30422Y52833D01*
X30392Y52960D01*
X30378Y52986D01*
X30370Y53014D01*
X30304Y53126D01*
X30243Y53241D01*
X30223Y53263D01*
X30208Y53288D01*
X30102Y53409D01*
X24129Y59382D01*
X24129Y187198D01*
X24114Y187316D01*
X24107Y187435D01*
X24094Y187473D01*
X24089Y187514D01*
X24046Y187624D01*
X24009Y187737D01*
X23987Y187772D01*
X23972Y187809D01*
X23903Y187905D01*
X23839Y188006D01*
X23809Y188034D01*
X23786Y188067D01*
X23694Y188143D01*
X23607Y188224D01*
X23572Y188244D01*
X23541Y188269D01*
X23433Y188320D01*
X23329Y188378D01*
X23289Y188388D01*
X23253Y188405D01*
X23136Y188427D01*
X23021Y188457D01*
X22961Y188461D01*
X22941Y188465D01*
X22920Y188463D01*
X22860Y188467D01*
X18908Y188467D01*
X15360Y189937D01*
X12645Y192652D01*
X12603Y192754D01*
X12568Y192815D01*
X12542Y192880D01*
X12490Y192952D01*
X12445Y193030D01*
X12397Y193080D01*
X12356Y193137D01*
X12286Y193194D01*
X12224Y193259D01*
X12164Y193295D01*
X12111Y193340D01*
X12029Y193378D01*
X11953Y193425D01*
X11886Y193446D01*
X11823Y193475D01*
X11735Y193492D01*
X11649Y193519D01*
X11579Y193522D01*
X11510Y193535D01*
X11421Y193529D01*
X11331Y193534D01*
X11263Y193520D01*
X11193Y193515D01*
X11108Y193488D01*
X11020Y193469D01*
X10957Y193439D01*
X10891Y193417D01*
X10815Y193369D01*
X10734Y193330D01*
X10681Y193284D01*
X10622Y193247D01*
X10560Y193182D01*
X10492Y193123D01*
X10452Y193066D01*
X10404Y193015D01*
X10361Y192937D01*
X10309Y192863D01*
X10284Y192798D01*
X10250Y192737D01*
X10228Y192650D01*
X10196Y192566D01*
X10188Y192497D01*
X10171Y192429D01*
X10161Y192268D01*
X10161Y39833D01*
X10167Y39784D01*
X10165Y39734D01*
X10187Y39627D01*
X10201Y39518D01*
X10219Y39471D01*
X10229Y39423D01*
X10277Y39324D01*
X10318Y39222D01*
X10347Y39182D01*
X10369Y39137D01*
X10440Y39054D01*
X10504Y38965D01*
X10543Y38933D01*
X10575Y38895D01*
X10665Y38832D01*
X10749Y38762D01*
X10794Y38741D01*
X10835Y38712D01*
X10938Y38673D01*
X11037Y38626D01*
X11086Y38617D01*
X11132Y38599D01*
X11242Y38587D01*
X11349Y38567D01*
X11399Y38570D01*
X11448Y38564D01*
X11557Y38580D01*
X11667Y38586D01*
X11714Y38602D01*
X11763Y38609D01*
X11916Y38661D01*
X16310Y40481D01*
X24330Y40481D01*
X31740Y37411D01*
X37411Y31740D01*
X40481Y24330D01*
X40481Y16310D01*
X38756Y12147D01*
X38742Y12096D01*
X38720Y12047D01*
X38701Y11943D01*
X38673Y11840D01*
X38672Y11787D01*
X38662Y11735D01*
X38669Y11629D01*
X38667Y11522D01*
X38680Y11470D01*
X38684Y11417D01*
X38717Y11316D01*
X38742Y11213D01*
X38767Y11166D01*
X38783Y11115D01*
X38841Y11026D01*
X38890Y10932D01*
X38926Y10893D01*
X38955Y10848D01*
X39033Y10775D01*
X39104Y10697D01*
X39149Y10667D01*
X39188Y10631D01*
X39281Y10580D01*
X39370Y10522D01*
X39420Y10505D01*
X39467Y10479D01*
X39570Y10453D01*
X39671Y10419D01*
X39724Y10414D01*
X39776Y10401D01*
X39936Y10392D01*
X398638Y12469D01*
G37*
%LPC*%
G36*
X87652Y110235D02*
X87652Y110235D01*
X82295Y115592D01*
X82295Y123168D01*
X87652Y128525D01*
X95228Y128525D01*
X100190Y123562D01*
X100268Y123502D01*
X100340Y123434D01*
X100393Y123405D01*
X100441Y123368D01*
X100532Y123328D01*
X100619Y123280D01*
X100678Y123265D01*
X100733Y123241D01*
X100831Y123226D01*
X100927Y123201D01*
X101027Y123195D01*
X101047Y123191D01*
X101060Y123193D01*
X101088Y123191D01*
X132592Y123191D01*
X132691Y123203D01*
X132790Y123206D01*
X132848Y123223D01*
X132908Y123231D01*
X133000Y123267D01*
X133095Y123295D01*
X133147Y123325D01*
X133204Y123348D01*
X133284Y123406D01*
X133369Y123456D01*
X133444Y123522D01*
X133461Y123534D01*
X133469Y123544D01*
X133490Y123562D01*
X138452Y128525D01*
X145470Y128525D01*
X145568Y128537D01*
X145667Y128540D01*
X145725Y128557D01*
X145785Y128565D01*
X145877Y128601D01*
X145973Y128629D01*
X146025Y128659D01*
X146081Y128682D01*
X146161Y128740D01*
X146246Y128790D01*
X146322Y128856D01*
X146338Y128868D01*
X146346Y128878D01*
X146367Y128896D01*
X150758Y133287D01*
X150818Y133365D01*
X150886Y133437D01*
X150915Y133490D01*
X150952Y133538D01*
X150992Y133629D01*
X151040Y133716D01*
X151055Y133774D01*
X151079Y133830D01*
X151094Y133928D01*
X151119Y134024D01*
X151125Y134124D01*
X151129Y134144D01*
X151127Y134156D01*
X151129Y134184D01*
X151129Y159088D01*
X151126Y159117D01*
X151128Y159146D01*
X151106Y159275D01*
X151089Y159403D01*
X151079Y159431D01*
X151074Y159460D01*
X151020Y159578D01*
X150972Y159699D01*
X150955Y159723D01*
X150943Y159750D01*
X150862Y159851D01*
X150786Y159956D01*
X150763Y159975D01*
X150744Y159998D01*
X150641Y160076D01*
X150541Y160159D01*
X150514Y160172D01*
X150490Y160189D01*
X150346Y160260D01*
X148753Y160920D01*
X145680Y163993D01*
X144017Y168007D01*
X144017Y172353D01*
X145680Y176367D01*
X148753Y179440D01*
X152767Y181103D01*
X157113Y181103D01*
X161127Y179440D01*
X164200Y176367D01*
X165863Y172353D01*
X165863Y168007D01*
X164200Y163993D01*
X161127Y160920D01*
X159534Y160260D01*
X159509Y160246D01*
X159481Y160237D01*
X159371Y160167D01*
X159258Y160103D01*
X159237Y160082D01*
X159212Y160066D01*
X159123Y159972D01*
X159030Y159882D01*
X159014Y159856D01*
X158994Y159835D01*
X158931Y159721D01*
X158863Y159610D01*
X158855Y159582D01*
X158840Y159556D01*
X158808Y159431D01*
X158770Y159306D01*
X158768Y159277D01*
X158761Y159248D01*
X158751Y159088D01*
X158751Y147320D01*
X158766Y147202D01*
X158773Y147083D01*
X158786Y147045D01*
X158791Y147004D01*
X158834Y146894D01*
X158871Y146781D01*
X158893Y146746D01*
X158908Y146709D01*
X158977Y146613D01*
X159041Y146512D01*
X159071Y146484D01*
X159094Y146451D01*
X159186Y146375D01*
X159273Y146294D01*
X159308Y146274D01*
X159339Y146249D01*
X159447Y146198D01*
X159551Y146140D01*
X159591Y146130D01*
X159627Y146113D01*
X159744Y146091D01*
X159859Y146061D01*
X159919Y146057D01*
X159939Y146053D01*
X159960Y146055D01*
X160020Y146051D01*
X197188Y146051D01*
X197217Y146054D01*
X197246Y146052D01*
X197375Y146074D01*
X197503Y146091D01*
X197531Y146101D01*
X197560Y146106D01*
X197678Y146160D01*
X197799Y146208D01*
X197823Y146225D01*
X197850Y146237D01*
X197951Y146318D01*
X198056Y146394D01*
X198075Y146417D01*
X198098Y146436D01*
X198176Y146539D01*
X198259Y146639D01*
X198272Y146666D01*
X198289Y146690D01*
X198360Y146834D01*
X199020Y148427D01*
X202093Y151500D01*
X206107Y153163D01*
X210453Y153163D01*
X214467Y151500D01*
X217540Y148427D01*
X219203Y144413D01*
X219203Y140067D01*
X218543Y138474D01*
X218535Y138446D01*
X218522Y138420D01*
X218493Y138293D01*
X218459Y138168D01*
X218458Y138138D01*
X218452Y138109D01*
X218456Y137979D01*
X218454Y137850D01*
X218461Y137821D01*
X218462Y137791D01*
X218498Y137667D01*
X218528Y137540D01*
X218542Y137514D01*
X218550Y137486D01*
X218616Y137374D01*
X218677Y137259D01*
X218697Y137237D01*
X218712Y137212D01*
X218818Y137091D01*
X219647Y136262D01*
X219725Y136202D01*
X219797Y136134D01*
X219850Y136105D01*
X219898Y136068D01*
X219989Y136028D01*
X220076Y135980D01*
X220134Y135965D01*
X220190Y135941D01*
X220288Y135926D01*
X220384Y135901D01*
X220484Y135895D01*
X220504Y135891D01*
X220516Y135893D01*
X220544Y135891D01*
X273050Y135891D01*
X273168Y135906D01*
X273287Y135913D01*
X273325Y135926D01*
X273366Y135931D01*
X273476Y135974D01*
X273589Y136011D01*
X273624Y136033D01*
X273661Y136048D01*
X273757Y136117D01*
X273858Y136181D01*
X273886Y136211D01*
X273919Y136234D01*
X273995Y136326D01*
X274076Y136413D01*
X274096Y136448D01*
X274121Y136479D01*
X274172Y136587D01*
X274230Y136691D01*
X274240Y136731D01*
X274257Y136767D01*
X274279Y136884D01*
X274309Y136999D01*
X274313Y137059D01*
X274317Y137079D01*
X274315Y137100D01*
X274319Y137160D01*
X274319Y141721D01*
X275866Y145456D01*
X278724Y148314D01*
X282459Y149861D01*
X286501Y149861D01*
X290236Y148314D01*
X293094Y145456D01*
X294641Y141721D01*
X294641Y122439D01*
X293094Y118704D01*
X290236Y115846D01*
X286501Y114299D01*
X282459Y114299D01*
X278724Y115846D01*
X275866Y118704D01*
X274319Y122439D01*
X274319Y127000D01*
X274304Y127118D01*
X274297Y127237D01*
X274284Y127275D01*
X274279Y127316D01*
X274236Y127426D01*
X274199Y127539D01*
X274177Y127574D01*
X274162Y127611D01*
X274093Y127707D01*
X274029Y127808D01*
X273999Y127836D01*
X273976Y127869D01*
X273884Y127945D01*
X273797Y128026D01*
X273762Y128046D01*
X273731Y128071D01*
X273623Y128122D01*
X273519Y128180D01*
X273479Y128190D01*
X273443Y128207D01*
X273326Y128229D01*
X273211Y128259D01*
X273151Y128263D01*
X273131Y128267D01*
X273110Y128265D01*
X273050Y128269D01*
X216862Y128269D01*
X213429Y131702D01*
X213405Y131720D01*
X213386Y131743D01*
X213280Y131817D01*
X213178Y131897D01*
X213150Y131909D01*
X213126Y131926D01*
X213005Y131972D01*
X212886Y132023D01*
X212857Y132028D01*
X212829Y132038D01*
X212700Y132053D01*
X212572Y132073D01*
X212542Y132070D01*
X212513Y132074D01*
X212384Y132055D01*
X212255Y132043D01*
X212227Y132033D01*
X212198Y132029D01*
X212046Y131977D01*
X210453Y131317D01*
X206107Y131317D01*
X202093Y132980D01*
X199020Y136053D01*
X198360Y137646D01*
X198346Y137671D01*
X198337Y137699D01*
X198267Y137809D01*
X198203Y137922D01*
X198182Y137943D01*
X198166Y137968D01*
X198072Y138057D01*
X197982Y138150D01*
X197956Y138166D01*
X197935Y138186D01*
X197821Y138249D01*
X197710Y138317D01*
X197682Y138325D01*
X197656Y138340D01*
X197531Y138372D01*
X197406Y138410D01*
X197377Y138412D01*
X197348Y138419D01*
X197188Y138429D01*
X160020Y138429D01*
X159902Y138414D01*
X159783Y138407D01*
X159745Y138394D01*
X159704Y138389D01*
X159594Y138346D01*
X159481Y138309D01*
X159446Y138287D01*
X159409Y138272D01*
X159313Y138203D01*
X159212Y138139D01*
X159184Y138109D01*
X159151Y138086D01*
X159075Y137994D01*
X158994Y137907D01*
X158974Y137872D01*
X158949Y137841D01*
X158898Y137733D01*
X158840Y137629D01*
X158830Y137589D01*
X158813Y137553D01*
X158791Y137436D01*
X158761Y137321D01*
X158757Y137261D01*
X158753Y137241D01*
X158755Y137220D01*
X158751Y137160D01*
X158751Y130502D01*
X151756Y123507D01*
X151696Y123429D01*
X151628Y123357D01*
X151599Y123304D01*
X151562Y123256D01*
X151522Y123165D01*
X151474Y123078D01*
X151459Y123020D01*
X151435Y122964D01*
X151420Y122866D01*
X151395Y122770D01*
X151389Y122670D01*
X151385Y122650D01*
X151387Y122638D01*
X151385Y122610D01*
X151385Y115592D01*
X146028Y110235D01*
X138452Y110235D01*
X133490Y115198D01*
X133412Y115258D01*
X133340Y115326D01*
X133287Y115355D01*
X133239Y115392D01*
X133148Y115432D01*
X133061Y115480D01*
X133002Y115495D01*
X132947Y115519D01*
X132849Y115534D01*
X132753Y115559D01*
X132653Y115565D01*
X132633Y115569D01*
X132620Y115567D01*
X132592Y115569D01*
X101088Y115569D01*
X100989Y115557D01*
X100890Y115554D01*
X100832Y115537D01*
X100772Y115529D01*
X100680Y115493D01*
X100585Y115465D01*
X100533Y115435D01*
X100476Y115412D01*
X100396Y115354D01*
X100311Y115304D01*
X100236Y115238D01*
X100219Y115226D01*
X100211Y115216D01*
X100190Y115198D01*
X95228Y110235D01*
X87652Y110235D01*
G37*
%LPD*%
%LPC*%
G36*
X262912Y51815D02*
X262912Y51815D01*
X257555Y57172D01*
X257555Y64748D01*
X262912Y70105D01*
X269930Y70105D01*
X270028Y70117D01*
X270127Y70120D01*
X270185Y70137D01*
X270245Y70145D01*
X270337Y70181D01*
X270433Y70209D01*
X270485Y70239D01*
X270541Y70262D01*
X270621Y70320D01*
X270706Y70370D01*
X270782Y70436D01*
X270798Y70448D01*
X270806Y70458D01*
X270827Y70476D01*
X312635Y112284D01*
X312684Y112347D01*
X312740Y112404D01*
X312781Y112472D01*
X312830Y112536D01*
X312862Y112609D01*
X312902Y112677D01*
X312925Y112754D01*
X312956Y112827D01*
X312969Y112906D01*
X312991Y112983D01*
X312994Y113062D01*
X313006Y113141D01*
X312999Y113221D01*
X313001Y113300D01*
X312984Y113378D01*
X312976Y113458D01*
X312949Y113533D01*
X312932Y113611D01*
X312896Y113682D01*
X312869Y113757D01*
X312824Y113823D01*
X312788Y113894D01*
X312735Y113954D01*
X312690Y114021D01*
X312631Y114073D01*
X312578Y114133D01*
X312512Y114178D01*
X312452Y114231D01*
X312419Y114248D01*
X312419Y129541D01*
X320041Y129541D01*
X320041Y123660D01*
X319905Y122801D01*
X319902Y122721D01*
X319890Y122643D01*
X319897Y122563D01*
X319895Y122483D01*
X319912Y122406D01*
X319919Y122326D01*
X319947Y122251D01*
X319964Y122173D01*
X320000Y122102D01*
X320027Y122027D01*
X320072Y121961D01*
X320108Y121889D01*
X320161Y121830D01*
X320206Y121764D01*
X320266Y121711D01*
X320318Y121651D01*
X320384Y121606D01*
X320444Y121553D01*
X320515Y121517D01*
X320581Y121472D01*
X320656Y121445D01*
X320727Y121409D01*
X320805Y121391D01*
X320881Y121364D01*
X320960Y121356D01*
X321038Y121339D01*
X321118Y121341D01*
X321197Y121334D01*
X321276Y121346D01*
X321355Y121349D01*
X321432Y121371D01*
X321511Y121383D01*
X321584Y121415D01*
X321661Y121437D01*
X321730Y121478D01*
X321803Y121509D01*
X321866Y121558D01*
X321935Y121599D01*
X322054Y121703D01*
X322055Y121704D01*
X322056Y121705D01*
X324748Y124397D01*
X324808Y124475D01*
X324876Y124547D01*
X324905Y124600D01*
X324942Y124648D01*
X324982Y124739D01*
X325030Y124826D01*
X325045Y124884D01*
X325069Y124940D01*
X325084Y125038D01*
X325109Y125134D01*
X325115Y125234D01*
X325119Y125254D01*
X325117Y125266D01*
X325119Y125294D01*
X325119Y141721D01*
X326666Y145456D01*
X329524Y148314D01*
X333259Y149861D01*
X337301Y149861D01*
X341036Y148314D01*
X343894Y145456D01*
X345441Y141721D01*
X345441Y122439D01*
X343894Y118704D01*
X341036Y115846D01*
X337301Y114299D01*
X333259Y114299D01*
X329524Y115846D01*
X329147Y116223D01*
X329053Y116296D01*
X328964Y116375D01*
X328928Y116393D01*
X328896Y116418D01*
X328787Y116465D01*
X328681Y116520D01*
X328641Y116528D01*
X328604Y116544D01*
X328486Y116563D01*
X328370Y116589D01*
X328330Y116588D01*
X328290Y116594D01*
X328172Y116583D01*
X328053Y116580D01*
X328014Y116568D01*
X327974Y116565D01*
X327862Y116524D01*
X327747Y116491D01*
X327712Y116471D01*
X327674Y116457D01*
X327576Y116390D01*
X327473Y116330D01*
X327428Y116290D01*
X327411Y116278D01*
X327398Y116263D01*
X327352Y116223D01*
X326327Y115197D01*
X326254Y115104D01*
X326175Y115014D01*
X326157Y114978D01*
X326132Y114946D01*
X326084Y114837D01*
X326030Y114731D01*
X326021Y114691D01*
X326005Y114654D01*
X325987Y114537D01*
X325961Y114421D01*
X325962Y114380D01*
X325956Y114340D01*
X325967Y114222D01*
X325970Y114103D01*
X325982Y114064D01*
X325985Y114024D01*
X326026Y113912D01*
X326059Y113797D01*
X326079Y113763D01*
X326093Y113724D01*
X326160Y113626D01*
X326220Y113523D01*
X326260Y113478D01*
X326272Y113461D01*
X326287Y113448D01*
X326327Y113402D01*
X347016Y92714D01*
X347110Y92641D01*
X347199Y92562D01*
X347235Y92543D01*
X347267Y92519D01*
X347376Y92471D01*
X347482Y92417D01*
X347522Y92408D01*
X347559Y92392D01*
X347677Y92374D01*
X347792Y92348D01*
X347833Y92349D01*
X347873Y92342D01*
X347991Y92354D01*
X348110Y92357D01*
X348149Y92368D01*
X348189Y92372D01*
X348301Y92413D01*
X348416Y92446D01*
X348451Y92466D01*
X348489Y92480D01*
X348587Y92547D01*
X348690Y92607D01*
X348735Y92647D01*
X348752Y92658D01*
X348765Y92674D01*
X348811Y92714D01*
X350132Y94035D01*
X353680Y95505D01*
X357520Y95505D01*
X361068Y94035D01*
X363783Y91320D01*
X365253Y87772D01*
X365253Y69708D01*
X363783Y66160D01*
X361068Y63445D01*
X357520Y61975D01*
X353680Y61975D01*
X350132Y63445D01*
X347417Y66160D01*
X345947Y69708D01*
X345947Y82478D01*
X345935Y82576D01*
X345932Y82675D01*
X345915Y82733D01*
X345907Y82793D01*
X345871Y82885D01*
X345843Y82981D01*
X345813Y83033D01*
X345790Y83089D01*
X345732Y83169D01*
X345682Y83254D01*
X345616Y83330D01*
X345604Y83346D01*
X345594Y83354D01*
X345576Y83375D01*
X342019Y86931D01*
X341910Y87017D01*
X341803Y87105D01*
X341784Y87114D01*
X341768Y87126D01*
X341640Y87182D01*
X341515Y87241D01*
X341495Y87245D01*
X341476Y87253D01*
X341338Y87275D01*
X341202Y87301D01*
X341182Y87299D01*
X341162Y87302D01*
X341023Y87289D01*
X340885Y87281D01*
X340866Y87275D01*
X340846Y87273D01*
X340714Y87225D01*
X340583Y87183D01*
X340565Y87172D01*
X340546Y87165D01*
X340431Y87087D01*
X340314Y87013D01*
X340300Y86998D01*
X340283Y86986D01*
X340191Y86882D01*
X340096Y86781D01*
X340086Y86763D01*
X340073Y86748D01*
X340009Y86624D01*
X339942Y86502D01*
X339937Y86483D01*
X339928Y86465D01*
X339898Y86329D01*
X339863Y86195D01*
X339861Y86166D01*
X339858Y86155D01*
X339859Y86134D01*
X339853Y86034D01*
X339853Y81025D01*
X332485Y81025D01*
X332485Y95940D01*
X332473Y96038D01*
X332470Y96137D01*
X332453Y96195D01*
X332445Y96255D01*
X332409Y96347D01*
X332381Y96443D01*
X332351Y96495D01*
X332328Y96551D01*
X332270Y96631D01*
X332220Y96716D01*
X332154Y96792D01*
X332142Y96808D01*
X332132Y96816D01*
X332114Y96837D01*
X320937Y108013D01*
X320843Y108086D01*
X320754Y108165D01*
X320718Y108183D01*
X320686Y108208D01*
X320577Y108256D01*
X320471Y108310D01*
X320432Y108319D01*
X320394Y108335D01*
X320277Y108353D01*
X320161Y108379D01*
X320120Y108378D01*
X320080Y108384D01*
X319962Y108373D01*
X319843Y108370D01*
X319804Y108358D01*
X319764Y108355D01*
X319651Y108314D01*
X319537Y108281D01*
X319502Y108261D01*
X319464Y108247D01*
X319366Y108180D01*
X319263Y108120D01*
X319218Y108080D01*
X319201Y108068D01*
X319188Y108053D01*
X319142Y108013D01*
X276216Y65087D01*
X276156Y65009D01*
X276088Y64937D01*
X276059Y64884D01*
X276022Y64836D01*
X275982Y64745D01*
X275934Y64658D01*
X275919Y64600D01*
X275895Y64544D01*
X275880Y64446D01*
X275855Y64351D01*
X275849Y64250D01*
X275845Y64230D01*
X275847Y64218D01*
X275845Y64190D01*
X275845Y57172D01*
X270488Y51815D01*
X262912Y51815D01*
G37*
%LPD*%
%LPC*%
G36*
X312419Y134619D02*
X312419Y134619D01*
X312419Y149559D01*
X313780Y149116D01*
X315205Y148390D01*
X316499Y147450D01*
X317630Y146319D01*
X318570Y145025D01*
X319296Y143600D01*
X319791Y142079D01*
X320041Y140500D01*
X320041Y134619D01*
X312419Y134619D01*
G37*
%LPD*%
%LPC*%
G36*
X299719Y134619D02*
X299719Y134619D01*
X299719Y140500D01*
X299969Y142079D01*
X300464Y143600D01*
X301190Y145025D01*
X302130Y146319D01*
X303261Y147450D01*
X304555Y148390D01*
X305980Y149116D01*
X307341Y149559D01*
X307341Y134619D01*
X299719Y134619D01*
G37*
%LPD*%
%LPC*%
G36*
X305980Y115044D02*
X305980Y115044D01*
X304555Y115770D01*
X303261Y116710D01*
X302130Y117841D01*
X301190Y119135D01*
X300464Y120560D01*
X299969Y122081D01*
X299719Y123660D01*
X299719Y129541D01*
X307341Y129541D01*
X307341Y114601D01*
X305980Y115044D01*
G37*
%LPD*%
%LPC*%
G36*
X332485Y76455D02*
X332485Y76455D01*
X339853Y76455D01*
X339853Y70868D01*
X339615Y69368D01*
X339146Y67923D01*
X338456Y66569D01*
X337563Y65340D01*
X336488Y64265D01*
X335259Y63372D01*
X333905Y62682D01*
X332485Y62221D01*
X332485Y76455D01*
G37*
%LPD*%
%LPC*%
G36*
X320547Y81025D02*
X320547Y81025D01*
X320547Y86612D01*
X320785Y88112D01*
X321254Y89557D01*
X321944Y90911D01*
X322837Y92140D01*
X323912Y93215D01*
X325141Y94108D01*
X326495Y94798D01*
X327915Y95259D01*
X327915Y81025D01*
X320547Y81025D01*
G37*
%LPD*%
%LPC*%
G36*
X326495Y62682D02*
X326495Y62682D01*
X325141Y63372D01*
X323912Y64265D01*
X322837Y65340D01*
X321944Y66569D01*
X321254Y67923D01*
X320785Y69368D01*
X320547Y70868D01*
X320547Y76455D01*
X327915Y76455D01*
X327915Y62221D01*
X326495Y62682D01*
G37*
%LPD*%
%LPC*%
G36*
X210819Y43179D02*
X210819Y43179D01*
X210819Y51297D01*
X210838Y51294D01*
X212473Y50763D01*
X214005Y49982D01*
X215396Y48971D01*
X216611Y47756D01*
X217622Y46365D01*
X218403Y44833D01*
X218934Y43198D01*
X218937Y43179D01*
X210819Y43179D01*
G37*
%LPD*%
%LPC*%
G36*
X160019Y33019D02*
X160019Y33019D01*
X160019Y41137D01*
X160038Y41134D01*
X161673Y40603D01*
X163205Y39822D01*
X164596Y38811D01*
X165811Y37596D01*
X166822Y36205D01*
X167603Y34673D01*
X168134Y33038D01*
X168137Y33019D01*
X160019Y33019D01*
G37*
%LPD*%
%LPC*%
G36*
X210819Y38101D02*
X210819Y38101D01*
X218937Y38101D01*
X218934Y38082D01*
X218403Y36447D01*
X217622Y34915D01*
X216611Y33524D01*
X215396Y32309D01*
X214005Y31298D01*
X212473Y30517D01*
X210838Y29986D01*
X210819Y29983D01*
X210819Y38101D01*
G37*
%LPD*%
%LPC*%
G36*
X197623Y43179D02*
X197623Y43179D01*
X197626Y43198D01*
X198157Y44833D01*
X198938Y46365D01*
X199949Y47756D01*
X201164Y48971D01*
X202555Y49982D01*
X204087Y50763D01*
X205722Y51294D01*
X205741Y51297D01*
X205741Y43179D01*
X197623Y43179D01*
G37*
%LPD*%
%LPC*%
G36*
X146823Y33019D02*
X146823Y33019D01*
X146826Y33038D01*
X147357Y34673D01*
X148138Y36205D01*
X149149Y37596D01*
X150364Y38811D01*
X151755Y39822D01*
X153287Y40603D01*
X154922Y41134D01*
X154941Y41137D01*
X154941Y33019D01*
X146823Y33019D01*
G37*
%LPD*%
%LPC*%
G36*
X160019Y27941D02*
X160019Y27941D01*
X168137Y27941D01*
X168134Y27922D01*
X167603Y26287D01*
X166822Y24755D01*
X165811Y23364D01*
X164596Y22149D01*
X163205Y21138D01*
X161673Y20357D01*
X160038Y19826D01*
X160019Y19823D01*
X160019Y27941D01*
G37*
%LPD*%
%LPC*%
G36*
X205722Y29986D02*
X205722Y29986D01*
X204087Y30517D01*
X202555Y31298D01*
X201164Y32309D01*
X199949Y33524D01*
X198938Y34915D01*
X198157Y36447D01*
X197626Y38082D01*
X197623Y38101D01*
X205741Y38101D01*
X205741Y29983D01*
X205722Y29986D01*
G37*
%LPD*%
%LPC*%
G36*
X154922Y19826D02*
X154922Y19826D01*
X153287Y20357D01*
X151755Y21138D01*
X150364Y22149D01*
X149149Y23364D01*
X148138Y24755D01*
X147357Y26287D01*
X146826Y27922D01*
X146823Y27941D01*
X154941Y27941D01*
X154941Y19823D01*
X154922Y19826D01*
G37*
%LPD*%
%LPC*%
G36*
X144271Y96011D02*
X144271Y96011D01*
X144271Y103125D01*
X146028Y103125D01*
X151385Y97768D01*
X151385Y96011D01*
X144271Y96011D01*
G37*
%LPD*%
%LPC*%
G36*
X93471Y96011D02*
X93471Y96011D01*
X93471Y103125D01*
X95228Y103125D01*
X100585Y97768D01*
X100585Y96011D01*
X93471Y96011D01*
G37*
%LPD*%
%LPC*%
G36*
X243331Y62991D02*
X243331Y62991D01*
X243331Y70105D01*
X245088Y70105D01*
X250445Y64748D01*
X250445Y62991D01*
X243331Y62991D01*
G37*
%LPD*%
%LPC*%
G36*
X133095Y96011D02*
X133095Y96011D01*
X133095Y97768D01*
X138452Y103125D01*
X140209Y103125D01*
X140209Y96011D01*
X133095Y96011D01*
G37*
%LPD*%
%LPC*%
G36*
X82295Y96011D02*
X82295Y96011D01*
X82295Y97768D01*
X87652Y103125D01*
X89409Y103125D01*
X89409Y96011D01*
X82295Y96011D01*
G37*
%LPD*%
%LPC*%
G36*
X232155Y62991D02*
X232155Y62991D01*
X232155Y64748D01*
X237512Y70105D01*
X239269Y70105D01*
X239269Y62991D01*
X232155Y62991D01*
G37*
%LPD*%
%LPC*%
G36*
X144271Y84835D02*
X144271Y84835D01*
X144271Y91949D01*
X151385Y91949D01*
X151385Y90192D01*
X146028Y84835D01*
X144271Y84835D01*
G37*
%LPD*%
%LPC*%
G36*
X93471Y84835D02*
X93471Y84835D01*
X93471Y91949D01*
X100585Y91949D01*
X100585Y90192D01*
X95228Y84835D01*
X93471Y84835D01*
G37*
%LPD*%
%LPC*%
G36*
X243331Y51815D02*
X243331Y51815D01*
X243331Y58929D01*
X250445Y58929D01*
X250445Y57172D01*
X245088Y51815D01*
X243331Y51815D01*
G37*
%LPD*%
%LPC*%
G36*
X138452Y84835D02*
X138452Y84835D01*
X133095Y90192D01*
X133095Y91949D01*
X140209Y91949D01*
X140209Y84835D01*
X138452Y84835D01*
G37*
%LPD*%
%LPC*%
G36*
X87652Y84835D02*
X87652Y84835D01*
X82295Y90192D01*
X82295Y91949D01*
X89409Y91949D01*
X89409Y84835D01*
X87652Y84835D01*
G37*
%LPD*%
%LPC*%
G36*
X237512Y51815D02*
X237512Y51815D01*
X232155Y57172D01*
X232155Y58929D01*
X239269Y58929D01*
X239269Y51815D01*
X237512Y51815D01*
G37*
%LPD*%
%LPC*%
G36*
X309879Y132079D02*
X309879Y132079D01*
X309879Y132081D01*
X309881Y132081D01*
X309881Y132079D01*
X309879Y132079D01*
G37*
%LPD*%
%LPC*%
G36*
X208279Y40639D02*
X208279Y40639D01*
X208279Y40641D01*
X208281Y40641D01*
X208281Y40639D01*
X208279Y40639D01*
G37*
%LPD*%
%LPC*%
G36*
X157479Y30479D02*
X157479Y30479D01*
X157479Y30481D01*
X157481Y30481D01*
X157481Y30479D01*
X157479Y30479D01*
G37*
%LPD*%
D10*
X355600Y85852D02*
X355600Y71628D01*
X330200Y71628D02*
X330200Y85852D01*
D11*
X91440Y119380D03*
X91440Y93980D03*
X142240Y119380D03*
X142240Y93980D03*
D12*
X266700Y60960D03*
X241300Y60960D03*
D13*
X53340Y170180D03*
X154940Y170180D03*
X208280Y40640D03*
X208280Y142240D03*
X55880Y30480D03*
X157480Y30480D03*
X40640Y48260D03*
X40640Y149860D03*
D14*
X284480Y139700D02*
X284480Y124460D01*
X309880Y124460D02*
X309880Y139700D01*
X335280Y139700D02*
X335280Y124460D01*
D10*
X35052Y223520D02*
X20828Y223520D01*
X20828Y198120D02*
X35052Y198120D01*
D15*
X53340Y198120D02*
X27940Y223520D01*
X53340Y198120D02*
X53340Y170180D01*
X40640Y157480D02*
X40640Y149860D01*
X40640Y157480D02*
X53340Y170180D01*
X27940Y198120D02*
X27940Y60960D01*
X40640Y48260D01*
X40640Y45720D02*
X55880Y30480D01*
X40640Y45720D02*
X40640Y48260D01*
X218440Y132080D02*
X284480Y132080D01*
X218440Y132080D02*
X208280Y142240D01*
X142240Y119380D02*
X91440Y119380D01*
X154940Y132080D02*
X154940Y142240D01*
X154940Y170180D01*
X154940Y132080D02*
X142240Y119380D01*
X154940Y142240D02*
X208280Y142240D01*
X320040Y114300D02*
X335280Y129540D01*
X320040Y114300D02*
X266700Y60960D01*
X335280Y129540D02*
X335280Y132080D01*
X320040Y114300D02*
X355600Y78740D01*
X142240Y93980D02*
X91440Y93980D01*
X228600Y60960D02*
X241300Y60960D01*
X228600Y60960D02*
X208280Y40640D01*
X198120Y30480D02*
X157480Y30480D01*
X198120Y30480D02*
X208280Y40640D01*
X142240Y45720D02*
X142240Y93980D01*
X142240Y45720D02*
X157480Y30480D01*
M02*
