G04 EAGLE Gerber RS-274X export*
G75*
%MOMM*%
%FSLAX34Y34*%
%LPD*%
%INBottom Copper*%
%IPPOS*%
%AMOC8*
5,1,8,0,0,1.08239X$1,22.5*%
G01*
%ADD10C,1.422400*%
%ADD11P,1.429621X8X292.500000*%
%ADD12P,1.429621X8X202.500000*%
%ADD13C,1.676400*%
%ADD14C,1.524000*%
%ADD15C,0.254000*%

G36*
X398638Y12469D02*
X398638Y12469D01*
X398684Y12475D01*
X398730Y12473D01*
X398841Y12496D01*
X398953Y12511D01*
X398996Y12528D01*
X399041Y12537D01*
X399143Y12587D01*
X399248Y12630D01*
X399285Y12657D01*
X399327Y12677D01*
X399413Y12751D01*
X399504Y12818D01*
X399534Y12854D01*
X399569Y12883D01*
X399634Y12976D01*
X399706Y13064D01*
X399725Y13106D01*
X399752Y13143D01*
X399792Y13249D01*
X399840Y13352D01*
X399848Y13398D01*
X399864Y13441D01*
X399877Y13554D01*
X399898Y13665D01*
X399895Y13711D01*
X399900Y13757D01*
X399884Y13869D01*
X399876Y13982D01*
X399862Y14026D01*
X399855Y14072D01*
X399803Y14224D01*
X398939Y16310D01*
X398939Y24330D01*
X402009Y31740D01*
X407680Y37411D01*
X415090Y40481D01*
X423110Y40481D01*
X426744Y38975D01*
X426792Y38962D01*
X426837Y38941D01*
X426945Y38921D01*
X427051Y38891D01*
X427101Y38891D01*
X427150Y38881D01*
X427259Y38888D01*
X427369Y38886D01*
X427417Y38898D01*
X427467Y38901D01*
X427571Y38935D01*
X427678Y38961D01*
X427722Y38984D01*
X427769Y38999D01*
X427862Y39058D01*
X427959Y39109D01*
X427996Y39143D01*
X428038Y39169D01*
X428113Y39249D01*
X428195Y39323D01*
X428222Y39365D01*
X428256Y39401D01*
X428309Y39497D01*
X428369Y39589D01*
X428386Y39636D01*
X428410Y39679D01*
X428437Y39786D01*
X428473Y39890D01*
X428477Y39939D01*
X428489Y39987D01*
X428499Y40148D01*
X428499Y257032D01*
X428493Y257081D01*
X428495Y257131D01*
X428473Y257238D01*
X428459Y257347D01*
X428441Y257394D01*
X428431Y257442D01*
X428383Y257541D01*
X428342Y257643D01*
X428313Y257683D01*
X428291Y257728D01*
X428220Y257811D01*
X428156Y257901D01*
X428117Y257932D01*
X428085Y257970D01*
X427995Y258033D01*
X427911Y258103D01*
X427866Y258125D01*
X427825Y258153D01*
X427722Y258192D01*
X427623Y258239D01*
X427574Y258248D01*
X427528Y258266D01*
X427418Y258278D01*
X427311Y258299D01*
X427261Y258296D01*
X427212Y258301D01*
X427103Y258286D01*
X426993Y258279D01*
X426946Y258264D01*
X426897Y258257D01*
X426744Y258205D01*
X423110Y256699D01*
X415090Y256699D01*
X407680Y259769D01*
X402009Y265440D01*
X398939Y272850D01*
X398939Y280870D01*
X400718Y285164D01*
X400731Y285212D01*
X400752Y285257D01*
X400773Y285365D01*
X400802Y285471D01*
X400803Y285521D01*
X400812Y285570D01*
X400805Y285679D01*
X400807Y285789D01*
X400795Y285837D01*
X400792Y285887D01*
X400758Y285991D01*
X400733Y286098D01*
X400710Y286142D01*
X400694Y286189D01*
X400635Y286282D01*
X400584Y286379D01*
X400551Y286416D01*
X400524Y286458D01*
X400444Y286533D01*
X400370Y286615D01*
X400329Y286642D01*
X400292Y286676D01*
X400196Y286729D01*
X400104Y286789D01*
X400057Y286806D01*
X400014Y286830D01*
X399908Y286857D01*
X399804Y286893D01*
X399754Y286897D01*
X399706Y286909D01*
X399545Y286919D01*
X37335Y286919D01*
X37285Y286913D01*
X37236Y286915D01*
X37128Y286893D01*
X37019Y286879D01*
X36973Y286861D01*
X36924Y286851D01*
X36826Y286803D01*
X36723Y286762D01*
X36683Y286733D01*
X36639Y286711D01*
X36555Y286640D01*
X36466Y286576D01*
X36434Y286537D01*
X36397Y286505D01*
X36333Y286415D01*
X36263Y286331D01*
X36242Y286286D01*
X36214Y286245D01*
X36175Y286142D01*
X36128Y286043D01*
X36118Y285994D01*
X36101Y285948D01*
X36089Y285838D01*
X36068Y285731D01*
X36071Y285681D01*
X36066Y285632D01*
X36081Y285523D01*
X36088Y285413D01*
X36103Y285366D01*
X36110Y285317D01*
X36162Y285164D01*
X37941Y280870D01*
X37941Y272850D01*
X34871Y265440D01*
X29200Y259769D01*
X21790Y256699D01*
X13770Y256699D01*
X11916Y257467D01*
X11868Y257480D01*
X11823Y257502D01*
X11715Y257522D01*
X11609Y257551D01*
X11559Y257552D01*
X11510Y257561D01*
X11401Y257555D01*
X11291Y257556D01*
X11243Y257545D01*
X11193Y257542D01*
X11089Y257508D01*
X10982Y257482D01*
X10938Y257459D01*
X10891Y257444D01*
X10798Y257385D01*
X10701Y257333D01*
X10664Y257300D01*
X10622Y257273D01*
X10547Y257193D01*
X10465Y257119D01*
X10438Y257078D01*
X10404Y257042D01*
X10351Y256946D01*
X10291Y256854D01*
X10274Y256807D01*
X10250Y256763D01*
X10223Y256657D01*
X10187Y256553D01*
X10183Y256503D01*
X10171Y256455D01*
X10161Y256295D01*
X10161Y229372D01*
X10169Y229302D01*
X10168Y229233D01*
X10189Y229145D01*
X10201Y229056D01*
X10226Y228991D01*
X10243Y228923D01*
X10285Y228844D01*
X10318Y228760D01*
X10359Y228704D01*
X10391Y228642D01*
X10452Y228576D01*
X10504Y228503D01*
X10558Y228458D01*
X10605Y228407D01*
X10680Y228358D01*
X10749Y228300D01*
X10813Y228270D01*
X10871Y228232D01*
X10956Y228203D01*
X11037Y228165D01*
X11106Y228152D01*
X11172Y228129D01*
X11261Y228122D01*
X11349Y228105D01*
X11419Y228109D01*
X11489Y228104D01*
X11577Y228119D01*
X11667Y228125D01*
X11733Y228146D01*
X11802Y228158D01*
X11884Y228195D01*
X11969Y228223D01*
X12028Y228260D01*
X12092Y228289D01*
X12162Y228345D01*
X12238Y228393D01*
X12286Y228444D01*
X12340Y228487D01*
X12394Y228559D01*
X12456Y228625D01*
X12490Y228686D01*
X12532Y228741D01*
X12603Y228886D01*
X12645Y228988D01*
X15360Y231703D01*
X18908Y233173D01*
X36972Y233173D01*
X40520Y231703D01*
X43235Y228988D01*
X44705Y225440D01*
X44705Y221600D01*
X43235Y218052D01*
X40520Y215337D01*
X36972Y213867D01*
X18908Y213867D01*
X15360Y215337D01*
X12645Y218052D01*
X12603Y218154D01*
X12568Y218215D01*
X12542Y218280D01*
X12490Y218352D01*
X12445Y218430D01*
X12397Y218480D01*
X12356Y218537D01*
X12286Y218594D01*
X12224Y218659D01*
X12164Y218695D01*
X12111Y218740D01*
X12029Y218778D01*
X11953Y218825D01*
X11886Y218846D01*
X11823Y218875D01*
X11735Y218892D01*
X11649Y218919D01*
X11579Y218922D01*
X11510Y218935D01*
X11421Y218929D01*
X11331Y218934D01*
X11263Y218920D01*
X11193Y218915D01*
X11108Y218888D01*
X11020Y218869D01*
X10957Y218839D01*
X10891Y218817D01*
X10815Y218769D01*
X10734Y218730D01*
X10681Y218684D01*
X10622Y218647D01*
X10560Y218582D01*
X10492Y218523D01*
X10452Y218466D01*
X10404Y218415D01*
X10361Y218337D01*
X10309Y218263D01*
X10284Y218198D01*
X10250Y218137D01*
X10228Y218050D01*
X10196Y217966D01*
X10188Y217897D01*
X10171Y217829D01*
X10161Y217668D01*
X10161Y203972D01*
X10169Y203902D01*
X10168Y203833D01*
X10189Y203745D01*
X10201Y203656D01*
X10226Y203591D01*
X10243Y203523D01*
X10285Y203444D01*
X10318Y203360D01*
X10359Y203304D01*
X10391Y203242D01*
X10452Y203176D01*
X10504Y203103D01*
X10558Y203058D01*
X10605Y203007D01*
X10680Y202958D01*
X10749Y202900D01*
X10813Y202870D01*
X10871Y202832D01*
X10956Y202803D01*
X11037Y202765D01*
X11106Y202752D01*
X11172Y202729D01*
X11261Y202722D01*
X11349Y202705D01*
X11419Y202709D01*
X11489Y202704D01*
X11577Y202719D01*
X11667Y202725D01*
X11733Y202746D01*
X11802Y202758D01*
X11884Y202795D01*
X11969Y202823D01*
X12028Y202860D01*
X12092Y202889D01*
X12162Y202945D01*
X12238Y202993D01*
X12286Y203044D01*
X12340Y203087D01*
X12394Y203159D01*
X12456Y203225D01*
X12490Y203286D01*
X12532Y203341D01*
X12603Y203486D01*
X12645Y203588D01*
X15360Y206303D01*
X18908Y207773D01*
X36972Y207773D01*
X40520Y206303D01*
X43235Y203588D01*
X44705Y200040D01*
X44705Y196200D01*
X43235Y192652D01*
X40520Y189937D01*
X36972Y188467D01*
X18908Y188467D01*
X15360Y189937D01*
X12645Y192652D01*
X12603Y192754D01*
X12568Y192815D01*
X12542Y192880D01*
X12490Y192952D01*
X12445Y193030D01*
X12397Y193080D01*
X12356Y193137D01*
X12286Y193194D01*
X12224Y193259D01*
X12164Y193295D01*
X12111Y193340D01*
X12029Y193378D01*
X11953Y193425D01*
X11886Y193446D01*
X11823Y193475D01*
X11735Y193492D01*
X11649Y193519D01*
X11579Y193522D01*
X11510Y193535D01*
X11421Y193529D01*
X11331Y193534D01*
X11263Y193520D01*
X11193Y193515D01*
X11108Y193488D01*
X11020Y193469D01*
X10957Y193439D01*
X10891Y193417D01*
X10815Y193369D01*
X10734Y193330D01*
X10681Y193284D01*
X10622Y193247D01*
X10560Y193182D01*
X10492Y193123D01*
X10452Y193066D01*
X10404Y193015D01*
X10361Y192937D01*
X10309Y192863D01*
X10284Y192798D01*
X10250Y192737D01*
X10228Y192650D01*
X10196Y192566D01*
X10188Y192497D01*
X10171Y192429D01*
X10161Y192268D01*
X10161Y39833D01*
X10167Y39784D01*
X10165Y39734D01*
X10187Y39627D01*
X10201Y39518D01*
X10219Y39471D01*
X10229Y39423D01*
X10277Y39324D01*
X10318Y39222D01*
X10347Y39182D01*
X10369Y39137D01*
X10440Y39054D01*
X10504Y38965D01*
X10543Y38933D01*
X10575Y38895D01*
X10665Y38832D01*
X10749Y38762D01*
X10794Y38741D01*
X10835Y38712D01*
X10938Y38673D01*
X11037Y38626D01*
X11086Y38617D01*
X11132Y38599D01*
X11242Y38587D01*
X11349Y38567D01*
X11399Y38570D01*
X11448Y38564D01*
X11557Y38580D01*
X11667Y38586D01*
X11714Y38602D01*
X11763Y38609D01*
X11916Y38661D01*
X16310Y40481D01*
X24330Y40481D01*
X31740Y37411D01*
X37411Y31740D01*
X40481Y24330D01*
X40481Y16310D01*
X38756Y12147D01*
X38742Y12096D01*
X38720Y12047D01*
X38701Y11943D01*
X38673Y11840D01*
X38672Y11787D01*
X38662Y11735D01*
X38669Y11629D01*
X38667Y11522D01*
X38680Y11470D01*
X38684Y11417D01*
X38717Y11316D01*
X38742Y11213D01*
X38767Y11166D01*
X38783Y11115D01*
X38841Y11026D01*
X38890Y10932D01*
X38926Y10893D01*
X38955Y10848D01*
X39033Y10775D01*
X39104Y10697D01*
X39149Y10667D01*
X39188Y10631D01*
X39281Y10580D01*
X39370Y10522D01*
X39420Y10505D01*
X39467Y10479D01*
X39570Y10453D01*
X39671Y10419D01*
X39724Y10414D01*
X39776Y10401D01*
X39936Y10392D01*
X398638Y12469D01*
G37*
%LPC*%
G36*
X53707Y19557D02*
X53707Y19557D01*
X49693Y21220D01*
X46620Y24293D01*
X44957Y28307D01*
X44957Y32653D01*
X46571Y36549D01*
X46608Y36683D01*
X46649Y36816D01*
X46650Y36836D01*
X46655Y36856D01*
X46657Y36995D01*
X46664Y37133D01*
X46660Y37153D01*
X46660Y37174D01*
X46628Y37309D01*
X46600Y37445D01*
X46591Y37463D01*
X46586Y37483D01*
X46521Y37606D01*
X46460Y37731D01*
X46447Y37746D01*
X46437Y37764D01*
X46344Y37867D01*
X46254Y37973D01*
X46237Y37984D01*
X46223Y37999D01*
X46107Y38076D01*
X45993Y38156D01*
X45975Y38163D01*
X45958Y38174D01*
X45826Y38219D01*
X45696Y38268D01*
X45676Y38271D01*
X45657Y38277D01*
X45518Y38288D01*
X45380Y38304D01*
X45360Y38301D01*
X45340Y38302D01*
X45203Y38279D01*
X45065Y38259D01*
X45039Y38250D01*
X45026Y38248D01*
X45008Y38240D01*
X44913Y38207D01*
X42813Y37337D01*
X38467Y37337D01*
X34453Y39000D01*
X31380Y42073D01*
X29717Y46087D01*
X29717Y50433D01*
X31380Y54447D01*
X34453Y57520D01*
X38467Y59183D01*
X42813Y59183D01*
X46827Y57520D01*
X49900Y54447D01*
X51563Y50433D01*
X51563Y46087D01*
X49949Y42191D01*
X49912Y42057D01*
X49871Y41924D01*
X49870Y41904D01*
X49865Y41884D01*
X49863Y41745D01*
X49856Y41607D01*
X49860Y41587D01*
X49860Y41566D01*
X49892Y41430D01*
X49920Y41295D01*
X49929Y41277D01*
X49934Y41257D01*
X50000Y41133D01*
X50060Y41009D01*
X50073Y40994D01*
X50083Y40976D01*
X50176Y40873D01*
X50267Y40767D01*
X50283Y40756D01*
X50297Y40741D01*
X50413Y40664D01*
X50527Y40584D01*
X50545Y40577D01*
X50562Y40566D01*
X50694Y40521D01*
X50824Y40472D01*
X50844Y40469D01*
X50863Y40463D01*
X51002Y40452D01*
X51140Y40436D01*
X51160Y40439D01*
X51180Y40438D01*
X51317Y40461D01*
X51455Y40481D01*
X51481Y40490D01*
X51494Y40492D01*
X51512Y40500D01*
X51607Y40533D01*
X53707Y41403D01*
X58053Y41403D01*
X62067Y39740D01*
X65140Y36667D01*
X66803Y32653D01*
X66803Y28307D01*
X65140Y24293D01*
X62067Y21220D01*
X58053Y19557D01*
X53707Y19557D01*
G37*
%LPD*%
%LPC*%
G36*
X38467Y138937D02*
X38467Y138937D01*
X34453Y140600D01*
X31380Y143673D01*
X29717Y147687D01*
X29717Y152033D01*
X31380Y156047D01*
X34453Y159120D01*
X38467Y160783D01*
X42813Y160783D01*
X44561Y160058D01*
X44628Y160040D01*
X44692Y160012D01*
X44781Y159998D01*
X44868Y159975D01*
X44938Y159973D01*
X45007Y159962D01*
X45096Y159971D01*
X45186Y159969D01*
X45254Y159986D01*
X45323Y159992D01*
X45408Y160023D01*
X45495Y160044D01*
X45557Y160076D01*
X45622Y160100D01*
X45697Y160150D01*
X45776Y160192D01*
X45828Y160239D01*
X45886Y160278D01*
X45945Y160346D01*
X46012Y160406D01*
X46050Y160465D01*
X46096Y160517D01*
X46137Y160597D01*
X46186Y160672D01*
X46209Y160738D01*
X46241Y160800D01*
X46260Y160888D01*
X46290Y160973D01*
X46295Y161042D01*
X46310Y161110D01*
X46308Y161200D01*
X46315Y161290D01*
X46303Y161359D01*
X46301Y161428D01*
X46276Y161515D01*
X46260Y161603D01*
X46232Y161667D01*
X46212Y161734D01*
X46167Y161811D01*
X46130Y161893D01*
X46086Y161948D01*
X46051Y162008D01*
X45944Y162129D01*
X44080Y163993D01*
X42417Y168007D01*
X42417Y172353D01*
X44080Y176367D01*
X47153Y179440D01*
X51167Y181103D01*
X55513Y181103D01*
X59527Y179440D01*
X62600Y176367D01*
X64263Y172353D01*
X64263Y168007D01*
X62600Y163993D01*
X59527Y160920D01*
X55513Y159257D01*
X51167Y159257D01*
X49419Y159982D01*
X49352Y160000D01*
X49288Y160028D01*
X49199Y160042D01*
X49112Y160065D01*
X49042Y160067D01*
X48973Y160078D01*
X48884Y160069D01*
X48794Y160071D01*
X48726Y160054D01*
X48657Y160048D01*
X48572Y160017D01*
X48485Y159996D01*
X48423Y159964D01*
X48358Y159940D01*
X48283Y159890D01*
X48204Y159848D01*
X48152Y159801D01*
X48094Y159762D01*
X48035Y159694D01*
X47968Y159634D01*
X47930Y159575D01*
X47884Y159523D01*
X47843Y159443D01*
X47794Y159368D01*
X47771Y159302D01*
X47739Y159240D01*
X47720Y159152D01*
X47690Y159067D01*
X47685Y158998D01*
X47670Y158930D01*
X47672Y158840D01*
X47665Y158750D01*
X47677Y158681D01*
X47679Y158612D01*
X47704Y158525D01*
X47720Y158437D01*
X47748Y158373D01*
X47768Y158306D01*
X47813Y158229D01*
X47850Y158147D01*
X47894Y158092D01*
X47929Y158032D01*
X48036Y157911D01*
X49900Y156047D01*
X51563Y152033D01*
X51563Y147687D01*
X49900Y143673D01*
X46827Y140600D01*
X42813Y138937D01*
X38467Y138937D01*
G37*
%LPD*%
%LPC*%
G36*
X333259Y114299D02*
X333259Y114299D01*
X329524Y115846D01*
X326666Y118704D01*
X325119Y122439D01*
X325119Y141721D01*
X326666Y145456D01*
X329524Y148314D01*
X333259Y149861D01*
X337301Y149861D01*
X341036Y148314D01*
X343894Y145456D01*
X345441Y141721D01*
X345441Y122439D01*
X343894Y118704D01*
X341036Y115846D01*
X337301Y114299D01*
X333259Y114299D01*
G37*
%LPD*%
%LPC*%
G36*
X282459Y114299D02*
X282459Y114299D01*
X278724Y115846D01*
X275866Y118704D01*
X274319Y122439D01*
X274319Y141721D01*
X275866Y145456D01*
X278724Y148314D01*
X282459Y149861D01*
X286501Y149861D01*
X290236Y148314D01*
X293094Y145456D01*
X294641Y141721D01*
X294641Y122439D01*
X293094Y118704D01*
X290236Y115846D01*
X286501Y114299D01*
X282459Y114299D01*
G37*
%LPD*%
%LPC*%
G36*
X353680Y61975D02*
X353680Y61975D01*
X350132Y63445D01*
X347417Y66160D01*
X345947Y69708D01*
X345947Y87772D01*
X347417Y91320D01*
X350132Y94035D01*
X353680Y95505D01*
X357520Y95505D01*
X361068Y94035D01*
X363783Y91320D01*
X365253Y87772D01*
X365253Y69708D01*
X363783Y66160D01*
X361068Y63445D01*
X357520Y61975D01*
X353680Y61975D01*
G37*
%LPD*%
%LPC*%
G36*
X152767Y159257D02*
X152767Y159257D01*
X148753Y160920D01*
X145680Y163993D01*
X144017Y168007D01*
X144017Y172353D01*
X145680Y176367D01*
X148753Y179440D01*
X152767Y181103D01*
X157113Y181103D01*
X161127Y179440D01*
X164200Y176367D01*
X165863Y172353D01*
X165863Y168007D01*
X164200Y163993D01*
X161127Y160920D01*
X157113Y159257D01*
X152767Y159257D01*
G37*
%LPD*%
%LPC*%
G36*
X206107Y131317D02*
X206107Y131317D01*
X202093Y132980D01*
X199020Y136053D01*
X197357Y140067D01*
X197357Y144413D01*
X199020Y148427D01*
X202093Y151500D01*
X206107Y153163D01*
X210453Y153163D01*
X214467Y151500D01*
X217540Y148427D01*
X219203Y144413D01*
X219203Y140067D01*
X217540Y136053D01*
X214467Y132980D01*
X210453Y131317D01*
X206107Y131317D01*
G37*
%LPD*%
%LPC*%
G36*
X138452Y110235D02*
X138452Y110235D01*
X133095Y115592D01*
X133095Y123168D01*
X138452Y128525D01*
X146028Y128525D01*
X151385Y123168D01*
X151385Y115592D01*
X146028Y110235D01*
X138452Y110235D01*
G37*
%LPD*%
%LPC*%
G36*
X87652Y110235D02*
X87652Y110235D01*
X82295Y115592D01*
X82295Y123168D01*
X87652Y128525D01*
X95228Y128525D01*
X100585Y123168D01*
X100585Y115592D01*
X95228Y110235D01*
X87652Y110235D01*
G37*
%LPD*%
%LPC*%
G36*
X262912Y51815D02*
X262912Y51815D01*
X257555Y57172D01*
X257555Y64748D01*
X262912Y70105D01*
X270488Y70105D01*
X275845Y64748D01*
X275845Y57172D01*
X270488Y51815D01*
X262912Y51815D01*
G37*
%LPD*%
%LPC*%
G36*
X312419Y134619D02*
X312419Y134619D01*
X312419Y149559D01*
X313780Y149116D01*
X315205Y148390D01*
X316499Y147450D01*
X317630Y146319D01*
X318570Y145025D01*
X319296Y143600D01*
X319791Y142079D01*
X320041Y140500D01*
X320041Y134619D01*
X312419Y134619D01*
G37*
%LPD*%
%LPC*%
G36*
X312419Y129541D02*
X312419Y129541D01*
X320041Y129541D01*
X320041Y123660D01*
X319791Y122081D01*
X319296Y120560D01*
X318570Y119135D01*
X317630Y117841D01*
X316499Y116710D01*
X315205Y115770D01*
X313780Y115044D01*
X312419Y114601D01*
X312419Y129541D01*
G37*
%LPD*%
%LPC*%
G36*
X299719Y134619D02*
X299719Y134619D01*
X299719Y140500D01*
X299969Y142079D01*
X300464Y143600D01*
X301190Y145025D01*
X302130Y146319D01*
X303261Y147450D01*
X304555Y148390D01*
X305980Y149116D01*
X307341Y149559D01*
X307341Y134619D01*
X299719Y134619D01*
G37*
%LPD*%
%LPC*%
G36*
X305980Y115044D02*
X305980Y115044D01*
X304555Y115770D01*
X303261Y116710D01*
X302130Y117841D01*
X301190Y119135D01*
X300464Y120560D01*
X299969Y122081D01*
X299719Y123660D01*
X299719Y129541D01*
X307341Y129541D01*
X307341Y114601D01*
X305980Y115044D01*
G37*
%LPD*%
%LPC*%
G36*
X332485Y81025D02*
X332485Y81025D01*
X332485Y95259D01*
X333905Y94798D01*
X335259Y94108D01*
X336488Y93215D01*
X337563Y92140D01*
X338456Y90911D01*
X339146Y89557D01*
X339615Y88112D01*
X339853Y86612D01*
X339853Y81025D01*
X332485Y81025D01*
G37*
%LPD*%
%LPC*%
G36*
X332485Y76455D02*
X332485Y76455D01*
X339853Y76455D01*
X339853Y70868D01*
X339615Y69368D01*
X339146Y67923D01*
X338456Y66569D01*
X337563Y65340D01*
X336488Y64265D01*
X335259Y63372D01*
X333905Y62682D01*
X332485Y62221D01*
X332485Y76455D01*
G37*
%LPD*%
%LPC*%
G36*
X320547Y81025D02*
X320547Y81025D01*
X320547Y86612D01*
X320785Y88112D01*
X321254Y89557D01*
X321944Y90911D01*
X322837Y92140D01*
X323912Y93215D01*
X325141Y94108D01*
X326495Y94798D01*
X327915Y95259D01*
X327915Y81025D01*
X320547Y81025D01*
G37*
%LPD*%
%LPC*%
G36*
X326495Y62682D02*
X326495Y62682D01*
X325141Y63372D01*
X323912Y64265D01*
X322837Y65340D01*
X321944Y66569D01*
X321254Y67923D01*
X320785Y69368D01*
X320547Y70868D01*
X320547Y76455D01*
X327915Y76455D01*
X327915Y62221D01*
X326495Y62682D01*
G37*
%LPD*%
%LPC*%
G36*
X210819Y43179D02*
X210819Y43179D01*
X210819Y51297D01*
X210838Y51294D01*
X212473Y50763D01*
X214005Y49982D01*
X215396Y48971D01*
X216611Y47756D01*
X217622Y46365D01*
X218403Y44833D01*
X218934Y43198D01*
X218937Y43179D01*
X210819Y43179D01*
G37*
%LPD*%
%LPC*%
G36*
X160019Y33019D02*
X160019Y33019D01*
X160019Y41137D01*
X160038Y41134D01*
X161673Y40603D01*
X163205Y39822D01*
X164596Y38811D01*
X165811Y37596D01*
X166822Y36205D01*
X167603Y34673D01*
X168134Y33038D01*
X168137Y33019D01*
X160019Y33019D01*
G37*
%LPD*%
%LPC*%
G36*
X210819Y38101D02*
X210819Y38101D01*
X218937Y38101D01*
X218934Y38082D01*
X218403Y36447D01*
X217622Y34915D01*
X216611Y33524D01*
X215396Y32309D01*
X214005Y31298D01*
X212473Y30517D01*
X210838Y29986D01*
X210819Y29983D01*
X210819Y38101D01*
G37*
%LPD*%
%LPC*%
G36*
X197623Y43179D02*
X197623Y43179D01*
X197626Y43198D01*
X198157Y44833D01*
X198938Y46365D01*
X199949Y47756D01*
X201164Y48971D01*
X202555Y49982D01*
X204087Y50763D01*
X205722Y51294D01*
X205741Y51297D01*
X205741Y43179D01*
X197623Y43179D01*
G37*
%LPD*%
%LPC*%
G36*
X146823Y33019D02*
X146823Y33019D01*
X146826Y33038D01*
X147357Y34673D01*
X148138Y36205D01*
X149149Y37596D01*
X150364Y38811D01*
X151755Y39822D01*
X153287Y40603D01*
X154922Y41134D01*
X154941Y41137D01*
X154941Y33019D01*
X146823Y33019D01*
G37*
%LPD*%
%LPC*%
G36*
X160019Y27941D02*
X160019Y27941D01*
X168137Y27941D01*
X168134Y27922D01*
X167603Y26287D01*
X166822Y24755D01*
X165811Y23364D01*
X164596Y22149D01*
X163205Y21138D01*
X161673Y20357D01*
X160038Y19826D01*
X160019Y19823D01*
X160019Y27941D01*
G37*
%LPD*%
%LPC*%
G36*
X205722Y29986D02*
X205722Y29986D01*
X204087Y30517D01*
X202555Y31298D01*
X201164Y32309D01*
X199949Y33524D01*
X198938Y34915D01*
X198157Y36447D01*
X197626Y38082D01*
X197623Y38101D01*
X205741Y38101D01*
X205741Y29983D01*
X205722Y29986D01*
G37*
%LPD*%
%LPC*%
G36*
X154922Y19826D02*
X154922Y19826D01*
X153287Y20357D01*
X151755Y21138D01*
X150364Y22149D01*
X149149Y23364D01*
X148138Y24755D01*
X147357Y26287D01*
X146826Y27922D01*
X146823Y27941D01*
X154941Y27941D01*
X154941Y19823D01*
X154922Y19826D01*
G37*
%LPD*%
%LPC*%
G36*
X144271Y96011D02*
X144271Y96011D01*
X144271Y103125D01*
X146028Y103125D01*
X151385Y97768D01*
X151385Y96011D01*
X144271Y96011D01*
G37*
%LPD*%
%LPC*%
G36*
X93471Y96011D02*
X93471Y96011D01*
X93471Y103125D01*
X95228Y103125D01*
X100585Y97768D01*
X100585Y96011D01*
X93471Y96011D01*
G37*
%LPD*%
%LPC*%
G36*
X243331Y62991D02*
X243331Y62991D01*
X243331Y70105D01*
X245088Y70105D01*
X250445Y64748D01*
X250445Y62991D01*
X243331Y62991D01*
G37*
%LPD*%
%LPC*%
G36*
X232155Y62991D02*
X232155Y62991D01*
X232155Y64748D01*
X237512Y70105D01*
X239269Y70105D01*
X239269Y62991D01*
X232155Y62991D01*
G37*
%LPD*%
%LPC*%
G36*
X133095Y96011D02*
X133095Y96011D01*
X133095Y97768D01*
X138452Y103125D01*
X140209Y103125D01*
X140209Y96011D01*
X133095Y96011D01*
G37*
%LPD*%
%LPC*%
G36*
X82295Y96011D02*
X82295Y96011D01*
X82295Y97768D01*
X87652Y103125D01*
X89409Y103125D01*
X89409Y96011D01*
X82295Y96011D01*
G37*
%LPD*%
%LPC*%
G36*
X93471Y84835D02*
X93471Y84835D01*
X93471Y91949D01*
X100585Y91949D01*
X100585Y90192D01*
X95228Y84835D01*
X93471Y84835D01*
G37*
%LPD*%
%LPC*%
G36*
X144271Y84835D02*
X144271Y84835D01*
X144271Y91949D01*
X151385Y91949D01*
X151385Y90192D01*
X146028Y84835D01*
X144271Y84835D01*
G37*
%LPD*%
%LPC*%
G36*
X243331Y51815D02*
X243331Y51815D01*
X243331Y58929D01*
X250445Y58929D01*
X250445Y57172D01*
X245088Y51815D01*
X243331Y51815D01*
G37*
%LPD*%
%LPC*%
G36*
X87652Y84835D02*
X87652Y84835D01*
X82295Y90192D01*
X82295Y91949D01*
X89409Y91949D01*
X89409Y84835D01*
X87652Y84835D01*
G37*
%LPD*%
%LPC*%
G36*
X237512Y51815D02*
X237512Y51815D01*
X232155Y57172D01*
X232155Y58929D01*
X239269Y58929D01*
X239269Y51815D01*
X237512Y51815D01*
G37*
%LPD*%
%LPC*%
G36*
X138452Y84835D02*
X138452Y84835D01*
X133095Y90192D01*
X133095Y91949D01*
X140209Y91949D01*
X140209Y84835D01*
X138452Y84835D01*
G37*
%LPD*%
%LPC*%
G36*
X309879Y132079D02*
X309879Y132079D01*
X309879Y132081D01*
X309881Y132081D01*
X309881Y132079D01*
X309879Y132079D01*
G37*
%LPD*%
%LPC*%
G36*
X157479Y30479D02*
X157479Y30479D01*
X157479Y30481D01*
X157481Y30481D01*
X157481Y30479D01*
X157479Y30479D01*
G37*
%LPD*%
%LPC*%
G36*
X208279Y40639D02*
X208279Y40639D01*
X208279Y40641D01*
X208281Y40641D01*
X208281Y40639D01*
X208279Y40639D01*
G37*
%LPD*%
D10*
X355600Y85852D02*
X355600Y71628D01*
X330200Y71628D02*
X330200Y85852D01*
D11*
X91440Y119380D03*
X91440Y93980D03*
X142240Y119380D03*
X142240Y93980D03*
D12*
X266700Y60960D03*
X241300Y60960D03*
D13*
X53340Y170180D03*
X154940Y170180D03*
X208280Y40640D03*
X208280Y142240D03*
X55880Y30480D03*
X157480Y30480D03*
X40640Y48260D03*
X40640Y149860D03*
D14*
X284480Y139700D02*
X284480Y124460D01*
X309880Y124460D02*
X309880Y139700D01*
X335280Y139700D02*
X335280Y124460D01*
D10*
X35052Y223520D02*
X20828Y223520D01*
X20828Y198120D02*
X35052Y198120D01*
D15*
X330200Y111760D02*
X330200Y78740D01*
X330200Y111760D02*
X309880Y132080D01*
X330200Y78740D02*
X259080Y78740D01*
X241300Y60960D01*
M02*
