M48
;GenerationSoftware,Autodesk,EAGLE,9.6.2*%
;CreationDate,2022-08-24T15:29:18Z*%
FMAT,2
ICI,OFF
METRIC,TZ,000.000
T5C0.813
T4C0.914
T3C1.016
T2C1.118
T1C2.000
%
G90
M71
T1
X1778Y27686
X41910Y27686
X2032Y2032
X41910Y2032
T2
X5334Y17018
X15494Y17018
X20828Y4064
X20828Y14224
X5588Y3048
X15748Y3048
X4064Y4826
X4064Y14986
T3
X28448Y13208
X30988Y13208
X33528Y13208
T4
X35560Y7874
X33020Y7874
X2794Y22352
X2794Y19812
T5
X9144Y11938
X9144Y9398
X14224Y11938
X14224Y9398
X26670Y6096
X24130Y6096
M30